<svg width="24" height="25" viewBox="0 0 24 25" fill="none" xmlns="http://www.w3.org/2000/svg">
<path d="M14.43 19.0431C14.24 19.0431 14.05 18.9731 13.9 18.8231C13.61 18.5331 13.61 18.0531 13.9 17.7631L19.44 12.2231L13.9 6.68314C13.61 6.39314 13.61 5.91314 13.9 5.62314C14.19 5.33314 14.67 5.33314 14.96 5.62314L21.03 11.6931C21.32 11.9831 21.32 12.4631 21.03 12.7531L14.96 18.8231C14.81 18.9731 14.62 19.0431 14.43 19.0431Z" fill="white"/>
<path d="M20.33 12.9731H3.5C3.09 12.9731 2.75 12.6331 2.75 12.2231C2.75 11.8131 3.09 11.4731 3.5 11.4731H20.33C20.74 11.4731 21.08 11.8131 21.08 12.2231C21.08 12.6331 20.74 12.9731 20.33 12.9731Z" fill="white"/>
</svg>
