<svg width="24" height="25" viewBox="0 0 24 25" fill="none" xmlns="http://www.w3.org/2000/svg">
<path d="M15.58 12.2232C15.58 14.2032 13.98 15.8032 12 15.8032C10.02 15.8032 8.42004 14.2032 8.42004 12.2232C8.42004 10.2432 10.02 8.64319 12 8.64319C13.98 8.64319 15.58 10.2432 15.58 12.2232Z" stroke="#17726D" stroke-width="1.5" stroke-linecap="round" stroke-linejoin="round"/>
<path d="M12 20.4931C15.53 20.4931 18.82 18.4131 21.11 14.8131C22.01 13.4031 22.01 11.0331 21.11 9.62311C18.82 6.02311 15.53 3.94312 12 3.94312C8.46997 3.94312 5.17997 6.02311 2.88997 9.62311C1.98997 11.0331 1.98997 13.4031 2.88997 14.8131C5.17997 18.4131 8.46997 20.4931 12 20.4931Z" stroke="#17726D" stroke-width="1.5" stroke-linecap="round" stroke-linejoin="round"/>
</svg>
