<svg width="472" height="138" viewBox="0 0 472 138" fill="none" xmlns="http://www.w3.org/2000/svg">
<g filter="url(#filter0_d_3_1127)">
<path d="M399.87 43.0666H408.402V51.7147C411.4 48.2555 414.629 45.7572 418.088 44.2197C421.547 42.6823 425.103 41.9136 428.754 41.9136C431.483 41.9136 433.924 42.3172 436.076 43.1243C438.228 43.9315 440.054 45.0845 441.553 46.5835C443.052 48.0825 444.186 49.9082 444.955 52.0606C445.762 54.1746 446.165 56.5576 446.165 59.2097V101.758H437.633V60.3051C437.633 58.3065 437.383 56.6345 436.883 55.2892C436.422 53.9056 435.73 52.7909 434.808 51.9453C433.924 51.0997 432.828 50.4848 431.521 50.1004C430.215 49.7161 428.754 49.5239 427.14 49.5239C424.526 49.5239 422.085 49.9851 419.818 50.9076C417.55 51.83 415.571 53.06 413.879 54.5974C412.188 56.0964 410.843 57.8452 409.844 59.8439C408.883 61.8041 408.402 63.8412 408.402 65.9552V101.758H399.87V43.0666Z" fill="#17726D"/>
<g filter="url(#filter1_d_3_1127)">
<path d="M379.069 100.941H348.605V94.8016L358.524 92.5582V25.1374L348.605 22.7759V16.636H379.069V22.7759L369.15 25.1374V92.5582L379.069 94.8016V100.941Z" fill="#DCB07B"/>
</g>
<path fill-rule="evenodd" clip-rule="evenodd" d="M380.35 102.223H347.324V93.7776L357.242 91.5342V26.1498L347.324 23.7883V15.3545H380.35V23.7883L370.432 26.1498V91.5342L380.35 93.7776V102.223ZM369.15 92.5583V25.1375L379.069 22.776V16.6361H348.605V22.776L358.524 25.1375V92.5583L348.605 94.8017V100.942H379.069V94.8017L369.15 92.5583Z" fill="#DCB07B"/>
<path d="M337.818 100.941L327.663 74.8469H294.248L284.211 100.941H273.467L306.41 16.2817H315.974L348.798 100.941H337.818ZM315.029 39.8967C314.793 39.267 314.399 38.1256 313.848 36.4726C313.297 34.8195 312.746 33.1271 312.195 31.3953C311.723 29.5848 311.329 28.2073 311.015 27.2627C310.621 28.837 310.188 30.4507 309.716 32.1038C309.322 33.6781 308.889 35.1344 308.417 36.4726C308.023 37.8107 307.669 38.9521 307.354 39.8967L297.79 65.4009H324.475L315.029 39.8967Z" fill="#DCB07B"/>
<g filter="url(#filter2_d_3_1127)">
<path fill-rule="evenodd" clip-rule="evenodd" d="M336.941 102.223L326.786 76.1284H295.128L285.091 102.223H271.592L305.533 15H316.851L350.67 102.223H336.941ZM294.248 74.8468H327.663L337.817 100.941H348.798L315.973 16.2816H306.409L273.466 100.941H284.211L294.248 74.8468ZM307.354 39.8966C307.669 38.952 308.023 37.8106 308.417 36.4724C308.889 35.1342 309.322 33.678 309.715 32.1036C309.952 31.2751 310.179 30.4565 310.396 29.6477C310.612 28.8429 310.818 28.0478 311.014 27.2626C311.218 27.8738 311.455 28.6664 311.724 29.6403C311.871 30.1713 312.028 30.7563 312.195 31.3952C312.746 33.127 313.297 34.8194 313.848 36.4724C314.399 38.1255 314.793 39.2669 315.029 39.8966L324.475 65.4008H297.79L307.354 39.8966ZM299.639 64.1192L308.562 40.3244L308.57 40.3019C308.888 39.3461 309.244 38.2002 309.636 36.8666C310.117 35.5004 310.556 34.0228 310.953 32.4353C310.989 32.3091 311.025 32.1832 311.061 32.0575C311.585 33.6994 312.108 35.3061 312.632 36.8777C313.182 38.5272 313.582 39.6885 313.828 40.3438C313.827 40.3429 313.828 40.3447 313.828 40.3438L322.633 64.1192H299.639Z" fill="#DCB07B"/>
</g>
<path d="M238.684 25.3691V41.6275H249.062V48.8919H238.684V87.347C238.684 88.6153 238.838 89.6915 239.146 90.5756C239.492 91.4212 239.934 92.113 240.472 92.6511C241.048 93.1508 241.721 93.5159 242.49 93.7465C243.258 93.9387 244.085 94.0348 244.969 94.0348C246.045 94.0348 247.16 93.9387 248.313 93.7465C249.466 93.5159 250.465 93.3045 251.311 93.1123V100.088C250.311 100.396 249.004 100.703 247.39 101.011C245.814 101.318 244.181 101.472 242.49 101.472C241.029 101.472 239.549 101.261 238.05 100.838C236.59 100.454 235.264 99.8194 234.072 98.9354C232.919 98.0513 231.977 96.9175 231.247 95.5338C230.517 94.1117 230.152 92.382 230.152 90.3449V48.8919H221.158V41.6275H230.152V25.3691H238.684Z" fill="#17726D"/>
<path d="M164.593 83.0691C164.631 85.1831 164.997 86.9704 165.688 88.4309C166.38 89.8915 167.322 91.083 168.513 92.0054C169.705 92.9279 171.089 93.6005 172.665 94.0233C174.279 94.4461 176.047 94.6575 177.969 94.6575C179.506 94.6575 181.12 94.523 182.812 94.2539C184.541 93.9465 186.117 93.4468 187.539 92.7549C188.961 92.0631 190.134 91.1406 191.056 89.9876C191.979 88.7961 192.44 87.2971 192.44 85.4906C192.44 83.8378 191.94 82.4349 190.941 81.2818C189.941 80.1288 188.635 79.1102 187.02 78.2262C185.406 77.3422 183.561 76.5542 181.486 75.8624C179.41 75.1321 177.296 74.3826 175.144 73.6139C172.991 72.8452 170.877 72.0188 168.802 71.1348C166.726 70.2123 164.881 69.1169 163.267 67.8485C161.653 66.5801 160.346 65.0811 159.347 63.3515C158.347 61.6219 157.848 59.5464 157.848 57.1249C157.848 54.5882 158.405 52.3204 159.519 50.3218C160.634 48.3231 162.114 46.6511 163.959 45.3059C165.842 43.9222 167.995 42.8844 170.416 42.1926C172.837 41.4623 175.355 41.0972 177.969 41.0972C180.928 41.0972 183.676 41.4623 186.213 42.1926C188.75 42.8844 190.96 43.9414 192.843 45.3635C194.765 46.7472 196.283 48.4961 197.398 50.61C198.551 52.6856 199.185 55.0878 199.301 57.8168H190.537C190.345 56.2793 189.884 54.9341 189.154 53.781C188.462 52.6279 187.539 51.6862 186.386 50.956C185.271 50.1872 183.984 49.6299 182.523 49.284C181.101 48.8996 179.583 48.7075 177.969 48.7075C176.085 48.7075 174.413 48.9381 172.953 49.3993C171.531 49.8605 170.32 50.4947 169.321 51.3019C168.36 52.0706 167.629 52.9738 167.13 54.0116C166.63 55.0494 166.38 56.1256 166.38 57.2402C166.38 58.7392 166.88 60.046 167.879 61.1607C168.879 62.2753 170.185 63.2747 171.8 64.1587C173.414 65.0427 175.259 65.8499 177.334 66.5801C179.41 67.3104 181.524 68.0791 183.676 68.8863C185.829 69.655 187.943 70.5006 190.018 71.4231C192.094 72.3455 193.939 73.4217 195.553 74.6517C197.167 75.8432 198.474 77.2461 199.474 78.8604C200.473 80.4747 200.973 82.3773 200.973 84.5681C200.973 87.7199 200.338 90.4104 199.07 92.6396C197.84 94.8305 196.168 96.637 194.054 98.0591C191.94 99.4428 189.48 100.461 186.674 101.115C183.907 101.768 181.005 102.095 177.969 102.095C175.009 102.095 172.203 101.71 169.551 100.942C166.899 100.135 164.574 98.9431 162.575 97.3672C160.576 95.7914 158.962 93.8119 157.732 91.4289C156.541 89.0459 155.887 86.2593 155.772 83.0691H164.593Z" fill="#17726D"/>
<path d="M136.012 100.941H127.479V90.4483C125.98 92.4085 124.405 94.0613 122.752 95.4065C121.137 96.7518 119.466 97.8472 117.736 98.6928C116.006 99.5 114.238 100.076 112.432 100.422C110.664 100.768 108.857 100.941 107.012 100.941C104.322 100.941 101.9 100.538 99.7479 99.7306C97.634 98.9234 95.8275 97.7703 94.3285 96.2713C92.8295 94.7723 91.6764 92.9659 90.8693 90.8519C90.1005 88.6995 89.7162 86.2972 89.7162 83.6452V42.2498H98.2489V82.5497C98.2489 84.5484 98.4796 86.2396 98.9408 87.6233C99.4405 89.007 100.132 90.1408 101.016 91.0248C101.939 91.8704 103.053 92.4854 104.36 92.8698C105.667 93.2541 107.147 93.4463 108.8 93.4463C111.375 93.4463 113.796 92.9466 116.064 91.9473C118.332 90.9095 120.311 89.6027 122.002 88.0269C123.693 86.4125 125.02 84.6253 125.98 82.6651C126.98 80.7048 127.479 78.783 127.479 76.8997V42.2498H136.012V100.941Z" fill="#17726D"/>
<path d="M33.821 83.0691C33.8595 85.1831 34.2246 86.9704 34.9164 88.4309C35.6083 89.8915 36.55 91.083 37.7415 92.0054C38.933 92.9279 40.3167 93.6005 41.8926 94.0233C43.5069 94.4461 45.2749 94.6575 47.1967 94.6575C48.7341 94.6575 50.3484 94.523 52.0396 94.2539C53.7692 93.9465 55.3451 93.4468 56.7672 92.7549C58.1894 92.0631 59.3616 91.1406 60.2841 89.9876C61.2066 88.7961 61.6678 87.2971 61.6678 85.4906C61.6678 83.8378 61.1681 82.4349 60.1688 81.2818C59.1695 80.1288 57.8626 79.1102 56.2483 78.2262C54.634 77.3422 52.7891 76.5542 50.7136 75.8624C48.638 75.1321 46.5241 74.3826 44.3717 73.6139C42.2193 72.8452 40.1053 72.0188 38.0298 71.1348C35.9542 70.2123 34.1093 69.1169 32.495 67.8485C30.8807 66.5801 29.5739 65.0811 28.5745 63.3515C27.5752 61.6219 27.0755 59.5464 27.0755 57.1249C27.0755 54.5882 27.6329 52.3204 28.7475 50.3218C29.8621 48.3231 31.3419 46.6511 33.1868 45.3059C35.0702 43.9222 37.2226 42.8844 39.6441 42.1926C42.0655 41.4623 44.5831 41.0972 47.1967 41.0972C50.1563 41.0972 52.9044 41.4623 55.4412 42.1926C57.978 42.8844 60.188 43.9414 62.0714 45.3635C63.9932 46.7472 65.5114 48.4961 66.626 50.61C67.7791 52.6856 68.4133 55.0878 68.5286 57.8168H59.7652C59.573 56.2793 59.1118 54.9341 58.3815 53.781C57.6897 52.6279 56.7672 51.6862 55.6142 50.956C54.4995 50.1872 53.2119 49.6299 51.7513 49.284C50.3292 48.8996 48.811 48.7075 47.1967 48.7075C45.3133 48.7075 43.6414 48.9381 42.1808 49.3993C40.7587 49.8605 39.548 50.4947 38.5486 51.3019C37.5877 52.0706 36.8575 52.9738 36.3578 54.0116C35.8581 55.0494 35.6083 56.1256 35.6083 57.2402C35.6083 58.7392 36.108 60.046 37.1073 61.1607C38.1066 62.2753 39.4134 63.2747 41.0277 64.1587C42.6421 65.0427 44.487 65.8499 46.5625 66.5801C48.638 67.3104 50.752 68.0791 52.9044 68.8863C55.0568 69.655 57.1708 70.5006 59.2463 71.4231C61.3219 72.3455 63.1668 73.4217 64.7811 74.6517C66.3954 75.8432 67.7022 77.2461 68.7016 78.8604C69.7009 80.4747 70.2006 82.3773 70.2006 84.5681C70.2006 87.7199 69.5664 90.4104 68.298 92.6396C67.068 94.8305 65.3961 96.637 63.2821 98.0591C61.1681 99.4428 58.7082 100.461 55.9024 101.115C53.135 101.768 50.2331 102.095 47.1967 102.095C44.2371 102.095 41.4313 101.71 38.7793 100.942C36.1272 100.135 33.8018 98.9431 31.8031 97.3672C29.8045 95.7914 28.1902 93.8119 26.9602 91.4289C25.7687 89.0459 25.1153 86.2593 25 83.0691H33.821Z" fill="#17726D"/>
</g>
<defs>
<filter id="filter0_d_3_1127" x="0" y="0" width="471.166" height="137.223" filterUnits="userSpaceOnUse" color-interpolation-filters="sRGB">
<feFlood flood-opacity="0" result="BackgroundImageFix"/>
<feColorMatrix in="SourceAlpha" type="matrix" values="0 0 0 0 0 0 0 0 0 0 0 0 0 0 0 0 0 0 127 0" result="hardAlpha"/>
<feOffset dy="10"/>
<feGaussianBlur stdDeviation="12.5"/>
<feComposite in2="hardAlpha" operator="out"/>
<feColorMatrix type="matrix" values="0 0 0 0 1 0 0 0 0 1 0 0 0 0 1 0 0 0 1 0"/>
<feBlend mode="normal" in2="BackgroundImageFix" result="effect1_dropShadow_3_1127"/>
<feBlend mode="normal" in="SourceGraphic" in2="effect1_dropShadow_3_1127" result="shape"/>
</filter>
<filter id="filter1_d_3_1127" x="323.605" y="1.63599" width="80.4634" height="134.306" filterUnits="userSpaceOnUse" color-interpolation-filters="sRGB">
<feFlood flood-opacity="0" result="BackgroundImageFix"/>
<feColorMatrix in="SourceAlpha" type="matrix" values="0 0 0 0 0 0 0 0 0 0 0 0 0 0 0 0 0 0 127 0" result="hardAlpha"/>
<feOffset dy="10"/>
<feGaussianBlur stdDeviation="12.5"/>
<feComposite in2="hardAlpha" operator="out"/>
<feColorMatrix type="matrix" values="0 0 0 0 0.862745 0 0 0 0 0.690196 0 0 0 0 0.482353 0 0 0 0.25 0"/>
<feBlend mode="normal" in2="BackgroundImageFix" result="effect1_dropShadow_3_1127"/>
<feBlend mode="normal" in="SourceGraphic" in2="effect1_dropShadow_3_1127" result="shape"/>
</filter>
<filter id="filter2_d_3_1127" x="246.592" y="0" width="129.077" height="137.223" filterUnits="userSpaceOnUse" color-interpolation-filters="sRGB">
<feFlood flood-opacity="0" result="BackgroundImageFix"/>
<feColorMatrix in="SourceAlpha" type="matrix" values="0 0 0 0 0 0 0 0 0 0 0 0 0 0 0 0 0 0 127 0" result="hardAlpha"/>
<feOffset dy="10"/>
<feGaussianBlur stdDeviation="12.5"/>
<feComposite in2="hardAlpha" operator="out"/>
<feColorMatrix type="matrix" values="0 0 0 0 0.862745 0 0 0 0 0.690196 0 0 0 0 0.482353 0 0 0 0.25 0"/>
<feBlend mode="normal" in2="BackgroundImageFix" result="effect1_dropShadow_3_1127"/>
<feBlend mode="normal" in="SourceGraphic" in2="effect1_dropShadow_3_1127" result="shape"/>
</filter>
</defs>
</svg>
