<svg width="132" height="28" viewBox="0 0 132 28" fill="none" xmlns="http://www.w3.org/2000/svg">
<path d="M117 9.35988H119.663V12.059C120.599 10.9794 121.607 10.1996 122.686 9.71977C123.766 9.23992 124.875 9 126.015 9C126.867 9 127.629 9.12596 128.3 9.37788C128.972 9.6298 129.542 9.98968 130.01 10.4575C130.478 10.9254 130.832 11.4952 131.071 12.167C131.323 12.8268 131.449 13.5705 131.449 14.3983V27.678H128.786V14.7402C128.786 14.1164 128.708 13.5945 128.552 13.1747C128.408 12.7428 128.192 12.3949 127.905 12.131C127.629 11.8671 127.287 11.6751 126.879 11.5552C126.471 11.4352 126.015 11.3752 125.511 11.3752C124.696 11.3752 123.934 11.5192 123.226 11.8071C122.518 12.095 121.9 12.4789 121.373 12.9587C120.845 13.4266 120.425 13.9724 120.113 14.5962C119.813 15.208 119.663 15.8438 119.663 16.5036V27.678H117V9.35988Z" fill="white"/>
<path d="M110.508 27.4231H101V25.5068L104.096 24.8066V3.76396L101 3.02691V1.1106H110.508V3.02691L107.412 3.76396V24.8066L110.508 25.5068V27.4231Z" fill="white"/>
<path fill-rule="evenodd" clip-rule="evenodd" d="M110.908 27.8232H100.6V25.1872L103.696 24.487V4.08L100.6 3.34295V0.710693H110.908V3.34295L107.812 4.08V24.487L110.908 25.1872V27.8232ZM107.412 24.8067V3.76405L110.508 3.02701V1.11069H101V3.02701L104.096 3.76405V24.8067L101 25.5069V27.4232H110.508V25.5069L107.412 24.8067Z" fill="white"/>
<path d="M97.633 27.423L94.4638 19.2787H84.0346L80.9021 27.423H77.5486L87.8303 1H90.8154L101.06 27.423H97.633ZM90.5206 8.37044C90.4469 8.17389 90.324 7.81766 90.152 7.30173C89.9801 6.78579 89.8081 6.25758 89.6361 5.71708C89.4887 5.15201 89.3659 4.72207 89.2676 4.42725C89.1447 4.91862 89.0096 5.42226 88.8622 5.9382C88.7394 6.42956 88.6042 6.88407 88.4568 7.30173C88.334 7.71938 88.2234 8.07562 88.1252 8.37044L85.1401 16.3305H93.4687L90.5206 8.37044Z" fill="white"/>
<path fill-rule="evenodd" clip-rule="evenodd" d="M97.3594 27.8231L94.1901 19.6788H84.3092L81.1768 27.8231H76.9636L87.5567 0.600098H91.0892L101.644 27.8231H97.3594ZM84.0345 19.2788H94.4637L97.6329 27.4231H101.06L90.8153 1.0001H87.8303L77.5485 27.4231H80.902L84.0345 19.2788ZM88.1251 8.37054C88.2233 8.07572 88.3339 7.71948 88.4567 7.30182C88.6042 6.88417 88.7393 6.42966 88.8621 5.93829C88.936 5.67971 89.0068 5.4242 89.0745 5.17178C89.1419 4.92058 89.2062 4.67244 89.2675 4.42735C89.3311 4.61813 89.405 4.86551 89.4891 5.16946C89.535 5.33521 89.584 5.51778 89.636 5.71718C89.808 6.25768 89.98 6.78589 90.1519 7.30182C90.3239 7.81775 90.4468 8.17399 90.5205 8.37054L93.4686 16.3306H85.14L88.1251 8.37054ZM85.7172 15.9306L88.5022 8.50405L88.5045 8.49703C88.604 8.19874 88.715 7.84108 88.8375 7.42485C88.9876 6.99846 89.1245 6.53728 89.2485 6.04179C89.2598 6.00242 89.271 5.96313 89.2821 5.9239C89.4455 6.43633 89.609 6.93781 89.7725 7.42832C89.9441 7.94312 90.0689 8.3056 90.1456 8.51012C90.1455 8.50983 90.1457 8.51041 90.1456 8.51012L92.8939 15.9306H85.7172Z" fill="white"/>
<path d="M66.6928 3.83643V8.9108H69.9317V11.1781H66.6928V23.1802C66.6928 23.5761 66.7408 23.912 66.8367 24.1879C66.9447 24.4518 67.0827 24.6678 67.2506 24.8357C67.4305 24.9917 67.6405 25.1056 67.8804 25.1776C68.1203 25.2376 68.3782 25.2676 68.6542 25.2676C68.99 25.2676 69.3379 25.2376 69.6978 25.1776C70.0577 25.1056 70.3696 25.0396 70.6335 24.9797V27.157C70.3216 27.2529 69.9138 27.3489 69.4099 27.4449C68.9181 27.5408 68.4082 27.5888 67.8804 27.5888C67.4245 27.5888 66.9627 27.5228 66.4948 27.3909C66.039 27.2709 65.6251 27.073 65.2532 26.7971C64.8934 26.5212 64.5995 26.1673 64.3715 25.7354C64.1436 25.2916 64.0296 24.7517 64.0296 24.1159V11.1781H61.2225V8.9108H64.0296V3.83643H66.6928Z" fill="white"/>
<path d="M43.5682 21.8452C43.5802 22.505 43.6941 23.0628 43.9101 23.5186C44.126 23.9745 44.4199 24.3464 44.7918 24.6343C45.1637 24.9222 45.5955 25.1321 46.0874 25.2641C46.5912 25.396 47.143 25.462 47.7428 25.462C48.2227 25.462 48.7265 25.42 49.2544 25.336C49.7942 25.2401 50.286 25.0841 50.7299 24.8682C51.1737 24.6523 51.5396 24.3644 51.8275 24.0045C52.1154 23.6326 52.2594 23.1647 52.2594 22.6009C52.2594 22.0851 52.1034 21.6472 51.7915 21.2873C51.4796 20.9275 51.0718 20.6096 50.5679 20.3337C50.0641 20.0577 49.4883 19.8118 48.8405 19.5959C48.1927 19.368 47.5329 19.134 46.8611 18.8941C46.1893 18.6542 45.5296 18.3963 44.8818 18.1204C44.234 17.8325 43.6582 17.4906 43.1543 17.0947C42.6505 16.6988 42.2426 16.231 41.9307 15.6911C41.6188 15.1513 41.4629 14.5035 41.4629 13.7478C41.4629 12.956 41.6368 12.2482 41.9847 11.6244C42.3326 11.0006 42.7944 10.4788 43.3702 10.0589C43.9581 9.62708 44.6298 9.30318 45.3856 9.08725C46.1414 8.85932 46.9271 8.74536 47.7428 8.74536C48.6665 8.74536 49.5243 8.85932 50.316 9.08725C51.1078 9.30318 51.7975 9.63308 52.3854 10.0769C52.9852 10.5088 53.459 11.0546 53.8069 11.7144C54.1668 12.3622 54.3647 13.112 54.4007 13.9637H51.6656C51.6056 13.4838 51.4617 13.064 51.2337 12.7041C51.0178 12.3442 50.7299 12.0503 50.37 11.8224C50.0221 11.5825 49.6202 11.4085 49.1644 11.3005C48.7205 11.1806 48.2467 11.1206 47.7428 11.1206C47.155 11.1206 46.6332 11.1926 46.1773 11.3365C45.7335 11.4805 45.3556 11.6784 45.0437 11.9303C44.7438 12.1703 44.5159 12.4522 44.3599 12.7761C44.204 13.1 44.126 13.4359 44.126 13.7837C44.126 14.2516 44.282 14.6595 44.5939 15.0074C44.9058 15.3552 45.3136 15.6671 45.8175 15.9431C46.3213 16.219 46.8971 16.4709 47.5449 16.6988C48.1927 16.9267 48.8525 17.1667 49.5243 17.4186C50.1961 17.6585 50.8558 17.9224 51.5036 18.2103C52.1514 18.4982 52.7272 18.8341 53.2311 19.218C53.7349 19.5899 54.1428 20.0277 54.4547 20.5316C54.7666 21.0354 54.9225 21.6292 54.9225 22.313C54.9225 23.2967 54.7246 24.1364 54.3287 24.8322C53.9449 25.516 53.423 26.0798 52.7632 26.5237C52.1034 26.9555 51.3357 27.2734 50.46 27.4774C49.5963 27.6813 48.6905 27.7833 47.7428 27.7833C46.8191 27.7833 45.9434 27.6633 45.1157 27.4234C44.288 27.1715 43.5622 26.7996 42.9384 26.3077C42.3146 25.8159 41.8107 25.1981 41.4269 24.4543C41.055 23.7106 40.8511 22.8408 40.8151 21.8452H43.5682Z" fill="white"/>
<path d="M34.6479 27.4231H31.9847V24.1482C31.5169 24.76 31.025 25.2758 30.5092 25.6957C30.0053 26.1155 29.4835 26.4574 28.9437 26.7213C28.4039 26.9733 27.852 27.1532 27.2882 27.2612C26.7364 27.3691 26.1726 27.4231 25.5968 27.4231C24.757 27.4231 24.0013 27.2972 23.3295 27.0452C22.6697 26.7933 22.1059 26.4334 21.638 25.9656C21.1702 25.4977 20.8103 24.9339 20.5584 24.2741C20.3184 23.6023 20.1985 22.8526 20.1985 22.0248V9.10498H22.8616V21.683C22.8616 22.3068 22.9336 22.8346 23.0776 23.2664C23.2335 23.6983 23.4494 24.0522 23.7254 24.3281C24.0133 24.592 24.3612 24.784 24.769 24.9039C25.1769 25.0239 25.6387 25.0839 26.1546 25.0839C26.9583 25.0839 27.7141 24.9279 28.4219 24.616C29.1296 24.2921 29.7474 23.8842 30.2753 23.3924C30.8031 22.8886 31.217 22.3307 31.5169 21.7189C31.8288 21.1071 31.9847 20.5073 31.9847 19.9195V9.10498H34.6479V27.4231Z" fill="white"/>
<path d="M2.75312 21.8452C2.76511 22.505 2.87908 23.0628 3.09501 23.5186C3.31094 23.9745 3.60485 24.3464 3.97673 24.6343C4.34861 24.9222 4.78047 25.1321 5.27231 25.2641C5.77615 25.396 6.32797 25.462 6.92778 25.462C7.40763 25.462 7.91147 25.42 8.4393 25.336C8.97913 25.2401 9.47097 25.0841 9.91483 24.8682C10.3587 24.6523 10.7246 24.3644 11.0125 24.0045C11.3004 23.6326 11.4443 23.1647 11.4443 22.6009C11.4443 22.0851 11.2884 21.6472 10.9765 21.2873C10.6646 20.9275 10.2567 20.6096 9.75288 20.3337C9.24904 20.0577 8.67322 19.8118 8.02543 19.5959C7.37764 19.368 6.71785 19.134 6.04606 18.8941C5.37428 18.6542 4.71449 18.3963 4.0667 18.1204C3.41891 17.8325 2.84309 17.4906 2.33925 17.0947C1.83541 16.6988 1.42754 16.231 1.11564 15.6911C0.803743 15.1513 0.647793 14.5035 0.647793 13.7478C0.647793 12.956 0.821737 12.2482 1.16963 11.6244C1.51751 11.0006 1.97937 10.4788 2.55518 10.0589C3.14299 9.62708 3.81478 9.30318 4.57054 9.08725C5.32629 8.85932 6.11204 8.74536 6.92778 8.74536C7.85149 8.74536 8.70921 8.85932 9.50096 9.08725C10.2927 9.30318 10.9825 9.63308 11.5703 10.0769C12.1701 10.5088 12.644 11.0546 12.9918 11.7144C13.3517 12.3622 13.5497 13.112 13.5856 13.9637H10.8505C10.7905 13.4838 10.6466 13.064 10.4187 12.7041C10.2027 12.3442 9.91483 12.0503 9.55494 11.8224C9.20705 11.5825 8.80518 11.4085 8.34933 11.3005C7.90547 11.1806 7.43162 11.1206 6.92778 11.1206C6.33997 11.1206 5.81814 11.1926 5.36228 11.3365C4.91843 11.4805 4.54055 11.6784 4.22865 11.9303C3.92874 12.1703 3.70081 12.4522 3.54486 12.7761C3.38891 13.1 3.31094 13.4359 3.31094 13.7837C3.31094 14.2516 3.46689 14.6595 3.77879 15.0074C4.09069 15.3552 4.49856 15.6671 5.0024 15.9431C5.50624 16.219 6.08205 16.4709 6.72985 16.6988C7.37764 16.9267 8.03743 17.1667 8.70921 17.4186C9.381 17.6585 10.0408 17.9224 10.6886 18.2103C11.3364 18.4982 11.9122 18.8341 12.416 19.218C12.9199 19.5899 13.3277 20.0277 13.6396 20.5316C13.9515 21.0354 14.1075 21.6292 14.1075 22.313C14.1075 23.2967 13.9095 24.1364 13.5137 24.8322C13.1298 25.516 12.608 26.0798 11.9482 26.5237C11.2884 26.9555 10.5206 27.2734 9.64491 27.4774C8.78119 27.6813 7.87548 27.7833 6.92778 27.7833C6.00408 27.7833 5.12836 27.6633 4.30062 27.4234C3.47289 27.1715 2.74712 26.7996 2.12332 26.3077C1.49952 25.8159 0.995681 25.1981 0.611804 24.4543C0.239923 23.7106 0.0359885 22.8408 0 21.8452H2.75312Z" fill="white"/>
</svg>
